<svg width="180" height="180" viewBox="0 0 180 180" fill="none" xmlns="http://www.w3.org/2000/svg">
  <defs>
    <linearGradient id="g" x1="0%" y1="0%" x2="100%" y2="100%">
      <stop offset="0%" stop-color="#C5A044"/>
      <stop offset="45%" stop-color="#D4AF37"/>
      <stop offset="100%" stop-color="#A07D2A"/>
    </linearGradient>
  </defs>
  <rect width="180" height="180" rx="37" fill="#0A0A0A"/>
  <g transform="translate(40, 28) scale(2.1)">
    <path d="M10 8 L21.5 38 L24 38 L35.5 8 L31 8 L24.5 28 L23 33 L21.5 28 L15 8 Z" fill="url(#g)"/>
    <path d="M17 15 C17 11.5, 20 9, 24 9 C28 9, 31 11.5, 31 15 C31 19, 27.5 21, 24 23 C20.5 25, 17 27, 17 31.5 C17 36, 20.5 39, 24 39 C28 39, 31 36, 31 32 L28 32 C28 34.5, 26.5 36.5, 24 36.5 C21 36.5, 19 34.5, 19 31.5 C19 28, 22 26, 25.5 24 C29 22, 33 19.5, 33 15 C33 10, 29 7, 24 7 C19 7, 15 10, 15 15 Z" fill="url(#g)" opacity="0.85"/>
  </g>
</svg>
